<?xml version="1.0" encoding="UTF-8"?>
<!DOCTYPE svg PUBLIC "-//W3C//DTD SVG 1.1//EN" "http://www.w3.org/Graphics/SVG/1.1/DTD/svg11.dtd">
<svg xmlns="http://www.w3.org/2000/svg" version="1.1" width="622px" height="381px" style="shape-rendering:geometricPrecision; text-rendering:geometricPrecision; image-rendering:optimizeQuality; fill-rule:evenodd; clip-rule:evenodd" xmlns:xlink="http://www.w3.org/1999/xlink">
<g><path style="opacity:0.943" fill="#002948" d="M 424.5,-0.5 C 436.167,-0.5 447.833,-0.5 459.5,-0.5C 465.748,1.29468 471.081,4.62802 475.5,9.5C 475.167,9.83333 474.833,10.1667 474.5,10.5C 470.77,8.42352 466.77,7.25686 462.5,7C 455.5,6.33333 448.5,6.33333 441.5,7C 448.939,11.6093 455.605,17.1093 461.5,23.5C 467.464,31.6152 475.131,37.7819 484.5,42C 488.359,42.9732 491.692,42.1398 494.5,39.5C 497.054,46.054 495.054,50.3873 488.5,52.5C 498.683,55.2587 501.35,51.7587 496.5,42C 496.833,41.5 497.167,41 497.5,40.5C 512.282,48.1172 523.449,59.1172 531,73.5C 529.027,72.3601 527.193,71.0267 525.5,69.5C 525.167,70 524.833,70.5 524.5,71C 527.249,82.9796 531.749,94.1462 538,104.5C 540,103.167 542,101.833 544,100.5C 545.952,109.221 542.452,114.055 533.5,115C 519.529,115.957 505.862,114.29 492.5,110C 483.386,106.61 474.386,102.943 465.5,99C 454.932,91.3072 445.099,82.8072 436,73.5C 434.67,74.5822 433.17,75.2488 431.5,75.5C 428.124,76.3876 425.457,78.221 423.5,81C 426.702,85.2306 429.535,89.7306 432,94.5C 433.111,99.6111 432.111,104.278 429,108.5C 425.145,113.353 420.978,117.853 416.5,122C 403.264,124.619 391.264,129.952 380.5,138C 386.618,135.852 392.952,133.852 399.5,132C 403.449,130.816 407.449,130.482 411.5,131C 408.651,135.694 405.318,140.027 401.5,144C 390.193,145.988 380.193,150.655 371.5,158C 376.432,156.507 381.432,154.841 386.5,153C 390.204,151.929 393.871,151.762 397.5,152.5C 395.416,156.336 393.083,160.003 390.5,163.5C 382.091,166.871 374.091,171.038 366.5,176C 371.068,174.739 375.735,173.406 380.5,172C 382.579,171.192 384.579,171.359 386.5,172.5C 381.136,182.562 376.303,192.895 372,203.5C 369.119,205.028 366.786,204.362 365,201.5C 363.534,205.029 362.534,208.695 362,212.5C 360.257,233.311 362.424,253.644 368.5,273.5C 368.987,274.473 369.487,275.473 370,276.5C 370.801,273.633 370.634,270.966 369.5,268.5C 369.5,266.833 369.5,265.167 369.5,263.5C 370.616,232.348 379.449,203.681 396,177.5C 413.403,151.763 434.57,129.596 459.5,111C 462.91,109.972 466.41,109.472 470,109.5C 486.464,112.74 502.964,115.906 519.5,119C 526.5,119.667 533.5,119.667 540.5,119C 543.196,118.235 545.696,117.068 548,115.5C 548.944,118.347 548.444,120.847 546.5,123C 555.383,123.067 562.883,126.233 569,132.5C 569.688,133.332 569.521,133.998 568.5,134.5C 549.903,130.07 531.57,131.07 513.5,137.5C 513.083,136.876 512.416,136.543 511.5,136.5C 507.101,138.01 502.768,139.343 498.5,140.5C 491.336,141.448 484.336,141.448 477.5,140.5C 488.732,140.366 499.399,137.866 509.5,133C 497.874,134.454 486.207,134.787 474.5,134C 466.579,139.919 460.079,147.086 455,155.5C 454.333,158.167 454.333,160.833 455,163.5C 465.65,186.803 476.317,210.136 487,233.5C 489.698,235.673 492.531,236.006 495.5,234.5C 497.738,235.537 500.071,235.703 502.5,235C 496.664,225.167 492.664,214.667 490.5,203.5C 509.567,197.952 522.734,204.285 530,222.5C 534.009,244.138 528.176,262.638 512.5,278C 499.956,287.616 486.623,288.949 472.5,282C 462.713,274.091 457.713,263.757 457.5,251C 457.984,240.715 460.984,231.215 466.5,222.5C 467.325,221.614 468.325,221.281 469.5,221.5C 471.99,229.485 475.323,237.151 479.5,244.5C 482.547,247.696 486.214,249.196 490.5,249C 486.592,246.968 483.425,244.134 481,240.5C 474.226,226.62 467.726,212.62 461.5,198.5C 453.898,206.285 448.064,215.285 444,225.5C 434.484,249.003 435.484,272.003 447,294.5C 460.649,313.382 478.815,320.216 501.5,315C 531.913,304.397 550.413,283.23 557,251.5C 561.28,230.241 557.614,210.575 546,192.5C 529.128,174.538 509.461,170.538 487,180.5C 486.278,169.225 490.778,160.725 500.5,155C 509.386,151.057 518.386,147.39 527.5,144C 539.893,140.055 552.56,138.721 565.5,140C 585.345,148.848 598.512,163.682 605,184.5C 610.73,202.402 612.73,220.735 611,239.5C 609.55,252.412 607.216,265.078 604,277.5C 616.562,247.052 618.729,215.885 610.5,184C 611.424,182.189 612.257,182.355 613,184.5C 616.374,193.119 619.207,201.785 621.5,210.5C 621.5,223.833 621.5,237.167 621.5,250.5C 613.901,289.921 593.901,321.421 561.5,345C 530.169,365.042 497.169,368.375 462.5,355C 460.138,353.489 457.805,351.989 455.5,350.5C 453.371,348.05 450.704,346.383 447.5,345.5C 447.167,344.5 446.5,343.833 445.5,343.5C 443.167,339.167 439.833,335.833 435.5,333.5C 434.833,332.5 434.167,331.5 433.5,330.5C 431.924,327.074 430.091,323.74 428,320.5C 427.329,319.748 426.496,319.414 425.5,319.5C 416.457,302.326 411.957,283.993 412,264.5C 409.655,280.581 410.822,296.414 415.5,312C 415.095,312.945 414.428,313.612 413.5,314C 366.024,322.02 318.524,329.854 271,337.5C 266.008,336.922 261.508,335.089 257.5,332C 251.031,326.532 244.864,320.699 239,314.5C 239.768,316.844 240.935,319.177 242.5,321.5C 242.167,321.833 241.833,322.167 241.5,322.5C 231.714,323.964 222.047,325.964 212.5,328.5C 210.176,335.315 207.176,341.815 203.5,348C 183.909,351.787 164.242,354.787 144.5,357C 149.084,354.42 153.084,351.087 156.5,347C 156.167,346.833 155.833,346.667 155.5,346.5C 146.744,354.294 136.578,359.294 125,361.5C 124.251,360.365 124.417,359.365 125.5,358.5C 144.558,351.608 157.891,338.775 165.5,320C 167.605,311.194 169.439,302.36 171,293.5C 172.579,291.959 174.413,290.792 176.5,290C 184.637,287.732 192.637,285.066 200.5,282C 200,281.833 199.5,281.667 199,281.5C 182.865,286.075 166.698,290.408 150.5,294.5C 146.909,305.015 141.743,314.681 135,323.5C 128.236,330.299 120.07,333.965 110.5,334.5C 110.5,333.5 110.5,332.5 110.5,331.5C 128.395,326.809 138.729,315.142 141.5,296.5C 139.097,296.393 137.264,297.393 136,299.5C 132.394,313.262 124.227,323.095 111.5,329C 92.3372,331.852 82.0039,323.518 80.5,304C 83.7708,277.056 98.7708,265.723 125.5,270C 135.948,265.943 146.282,261.609 156.5,257C 150.182,246.497 140.849,240.497 128.5,239C 105.555,237.649 86.7216,245.816 72,263.5C 47.8466,300.391 44.0133,339.391 60.5,380.5C 59.5,380.5 58.5,380.5 57.5,380.5C 40.2154,355.192 33.7154,327.192 38,296.5C 40.492,274.488 48.3253,254.822 61.5,237.5C 64.8615,235.105 67.5281,232.105 69.5,228.5C 89.698,208.945 113.698,202.112 141.5,208C 148.779,209.657 155.446,212.324 161.5,216C 154.794,210.645 147.46,206.312 139.5,203C 129.285,200.457 118.951,198.623 108.5,197.5C 108.5,196.5 108.5,195.5 108.5,194.5C 132.556,190.645 155.222,194.645 176.5,206.5C 179.072,202.761 182.405,199.928 186.5,198C 198.138,195.805 209.805,195.139 221.5,196C 206.472,187.155 191.472,178.322 176.5,169.5C 173.279,166.722 169.612,164.722 165.5,163.5C 163.5,162.167 161.5,160.833 159.5,159.5C 154.153,155.156 148.153,151.823 141.5,149.5C 113.864,133.346 86.1974,117.18 58.5,101C 49.4325,92.1218 51.4325,87.7885 64.5,88C 88.8938,85.6939 113.227,82.8606 137.5,79.5C 148.221,81.01 158.721,83.3433 169,86.5C 167.647,102.125 173.48,114.125 186.5,122.5C 187.246,123.736 187.579,125.07 187.5,126.5C 200.472,127.998 213.472,128.831 226.5,129C 229.797,126.705 232.797,124.038 235.5,121C 242.649,120.313 249.649,118.98 256.5,117C 263.336,103.498 273.003,92.4984 285.5,84C 311.288,71.5935 338.455,65.7601 367,66.5C 380.5,63.083 394,59.583 407.5,56C 411.203,52.6325 414.536,48.9658 417.5,45C 427.548,45.6105 437.548,46.6105 447.5,48C 449.41,47.5917 450.41,46.4251 450.5,44.5C 450.241,42.0128 449.241,40.0128 447.5,38.5C 446.631,34.6261 444.297,31.9594 440.5,30.5C 440.167,30.5 439.833,30.5 439.5,30.5C 439.586,29.5041 439.252,28.6708 438.5,28C 433.81,24.3228 428.81,21.1562 423.5,18.5C 417.688,15.427 412.022,12.0937 406.5,8.5C 407.313,7.18614 408.313,6.01948 409.5,5C 414.434,2.63687 419.434,0.803541 424.5,-0.5 Z M 450.5,66.5 C 458.14,65.8175 465.473,66.9842 472.5,70C 484.601,75.4597 495.768,82.293 506,90.5C 507.377,89.9642 507.377,88.9642 506,87.5C 500.096,80.9257 493.596,75.0924 486.5,70C 489.924,70.3605 493.258,71.3605 496.5,73C 507.953,81.7881 517.286,92.4547 524.5,105C 523.57,105.991 522.404,106.491 521,106.5C 491.568,103.049 468.068,89.716 450.5,66.5 Z M 364.5,74.5 C 341.533,74.3826 319.533,78.8826 298.5,88C 285.067,94.7039 278.067,105.537 277.5,120.5C 272.198,121.467 266.865,122.133 261.5,122.5C 268.891,106.275 280.558,94.1079 296.5,86C 316.5,78.6093 337.166,74.1093 358.5,72.5C 360.883,72.361 362.883,73.0277 364.5,74.5 Z M 143.5,88.5 C 149.938,88.8545 156.272,89.8545 162.5,91.5C 163.454,99.6231 165.788,107.29 169.5,114.5C 163.715,113.47 158.049,111.97 152.5,110C 150.623,107.749 149.123,105.249 148,102.5C 146.791,97.7071 145.291,93.0405 143.5,88.5 Z M 151.5,145.5 C 177.897,159.365 204.564,172.698 231.5,185.5C 233.534,184.441 235.534,183.441 237.5,182.5C 235.906,185.764 233.573,188.431 230.5,190.5C 203.973,175.74 177.64,160.74 151.5,145.5 Z M 289.5,168.5 C 298.293,174.112 307.46,179.112 317,183.5C 319.444,188.908 320.11,194.574 319,200.5C 317.655,216.882 313.655,232.548 307,247.5C 305.629,250.266 303.796,252.599 301.5,254.5C 311.696,233.594 315.529,211.594 313,188.5C 306.782,183.281 300.282,178.448 293.5,174C 292.035,172.226 290.702,170.392 289.5,168.5 Z M 569.5,239.5 C 570.656,244.044 570.489,248.711 569,253.5C 568.995,248.853 569.162,244.186 569.5,239.5 Z M 567.5,258.5 C 563.055,280.069 552.055,297.403 534.5,310.5C 542.247,303.255 549.081,295.255 555,286.5C 560.04,277.431 564.207,268.097 567.5,258.5 Z M 106.5,287.5 C 116.392,286.564 119.892,290.897 117,300.5C 114,307.415 108.833,310.248 101.5,309C 96.6509,303.767 96.4842,298.267 101,292.5C 102.73,290.598 104.563,288.931 106.5,287.5 Z M 261.5,323.5 C 266.123,325.54 270.957,326.874 276,327.5C 304.932,323.647 333.766,319.147 362.5,314C 375.133,312.004 387.799,310.67 400.5,310C 358.716,317.423 316.882,324.59 275,331.5C 269.875,329.695 265.375,327.028 261.5,323.5 Z M 534.5,310.5 C 534.027,311.906 533.027,312.573 531.5,312.5C 531.973,311.094 532.973,310.427 534.5,310.5 Z M 531.5,312.5 C 527.26,316.455 522.26,319.122 516.5,320.5C 521.333,317.582 526.333,314.916 531.5,312.5 Z M 160.5,341.5 C 160.573,343.027 159.906,344.027 158.5,344.5C 158.427,342.973 159.094,341.973 160.5,341.5 Z"/></g>
<g><path style="opacity:0.809" fill="#55a2e4" d="M 494.5,39.5 C 491.692,42.1398 488.359,42.9732 484.5,42C 475.131,37.7819 467.464,31.6152 461.5,23.5C 465.512,26.7562 470.012,29.0895 475,30.5C 477.981,29.5572 478.981,27.5572 478,24.5C 476.026,19.5511 472.86,15.5511 468.5,12.5C 467.417,11.635 467.251,10.635 468,9.5C 480.928,15.9253 489.761,25.9253 494.5,39.5 Z"/></g>
<g><path style="opacity:0.747" fill="#57a4e6" d="M 423.5,18.5 C 428.81,21.1562 433.81,24.3228 438.5,28C 439.252,28.6708 439.586,29.5041 439.5,30.5C 379.46,36.1341 319.46,42.1341 259.5,48.5C 259.5,47.5 259.5,46.5 259.5,45.5C 295.556,40.4562 331.556,34.9562 367.5,29C 386.414,26.0174 405.08,22.5174 423.5,18.5 Z"/></g>
<g><path style="opacity:0.607" fill="#57a4e6" d="M 440.5,30.5 C 444.297,31.9594 446.631,34.6261 447.5,38.5C 417.15,41.435 386.817,44.435 356.5,47.5C 356.5,46.5 356.5,45.5 356.5,44.5C 384.858,41.2138 412.858,36.5471 440.5,30.5 Z"/></g>
<g><path style="opacity:0.979" fill="#56a3e5" d="M 309.5,97.5 C 306.689,97.8257 304.022,98.6591 301.5,100C 304.364,100.193 307.03,99.6932 309.5,98.5C 321.765,96.5515 334.098,95.7182 346.5,96C 349.96,98.8136 353.793,100.98 358,102.5C 350.268,122.938 339.101,141.438 324.5,158C 320.041,159.983 315.708,159.65 311.5,157C 298.672,148.085 285.672,139.419 272.5,131C 271,129.5 269.5,128 268,126.5C 267.685,127.908 268.018,129.241 269,130.5C 270.353,131.685 271.52,133.019 272.5,134.5C 272.167,134.833 271.833,135.167 271.5,135.5C 260.875,134.172 250.208,133.006 239.5,132C 237.972,129.119 238.638,126.786 241.5,125C 248.165,123.988 254.832,123.155 261.5,122.5C 266.865,122.133 272.198,121.467 277.5,120.5C 278.067,105.537 285.067,94.7039 298.5,88C 319.533,78.8826 341.533,74.3826 364.5,74.5C 366.033,76.3548 367.7,78.1881 369.5,80C 373.551,80.5177 377.551,80.1843 381.5,79C 393.781,75.7231 405.948,72.2231 418,68.5C 418.895,66.1955 419.729,63.8622 420.5,61.5C 422.921,64.6422 423.088,67.9755 421,71.5C 418.363,73.2349 415.53,74.5682 412.5,75.5C 411.571,76.6888 411.238,78.0222 411.5,79.5C 399.098,82.2372 386.764,85.4039 374.5,89C 372.004,90.0804 369.67,91.4138 367.5,93C 357.963,91.2085 348.297,90.5419 338.5,91C 328.699,92.7009 319.033,94.8675 309.5,97.5 Z"/></g>
<g><path style="opacity:1" fill="#4995d2" d="M 369.5,70.5 C 375.016,70.4734 376.349,72.64 373.5,77C 368.791,77.082 367.458,74.9154 369.5,70.5 Z"/></g>
<g><path style="opacity:0.876" fill="#55a2e4" d="M 431.5,75.5 C 439.173,87.8395 449.173,97.8395 461.5,105.5C 461,105.833 460.5,106.167 460,106.5C 456.533,105.067 453.033,103.734 449.5,102.5C 447.394,103.43 445.394,104.596 443.5,106C 410.653,139.498 386.82,178.665 372,223.5C 368.947,236.862 368.114,250.195 369.5,263.5C 369.5,265.167 369.5,266.833 369.5,268.5C 369.784,270.415 369.451,272.081 368.5,273.5C 362.424,253.644 360.257,233.311 362,212.5C 362.534,208.695 363.534,205.029 365,201.5C 366.786,204.362 369.119,205.028 372,203.5C 376.303,192.895 381.136,182.562 386.5,172.5C 384.579,171.359 382.579,171.192 380.5,172C 375.735,173.406 371.068,174.739 366.5,176C 374.091,171.038 382.091,166.871 390.5,163.5C 393.083,160.003 395.416,156.336 397.5,152.5C 393.871,151.762 390.204,151.929 386.5,153C 381.432,154.841 376.432,156.507 371.5,158C 380.193,150.655 390.193,145.988 401.5,144C 405.318,140.027 408.651,135.694 411.5,131C 407.449,130.482 403.449,130.816 399.5,132C 392.952,133.852 386.618,135.852 380.5,138C 391.264,129.952 403.264,124.619 416.5,122C 420.978,117.853 425.145,113.353 429,108.5C 432.111,104.278 433.111,99.6111 432,94.5C 429.535,89.7306 426.702,85.2306 423.5,81C 425.457,78.221 428.124,76.3876 431.5,75.5 Z"/></g>
<g><path style="opacity:0.672" fill="#52a0e0" d="M 143.5,88.5 C 145.291,93.0405 146.791,97.7071 148,102.5C 149.123,105.249 150.623,107.749 152.5,110C 158.049,111.97 163.715,113.47 169.5,114.5C 172.245,115.737 174.578,117.57 176.5,120C 175.833,120.167 175.167,120.333 174.5,120.5C 166.868,118.589 159.202,116.923 151.5,115.5C 147.554,109.943 144.387,103.943 142,97.5C 139.713,94.5379 136.88,92.3712 133.5,91C 123.829,90.6373 114.162,90.804 104.5,91.5C 102.265,91.7947 100.265,91.4614 98.5,90.5C 111.169,89.4241 123.835,88.2574 136.5,87C 137.191,85.9326 137.691,84.7659 138,83.5C 139.491,85.5939 141.324,87.2606 143.5,88.5 Z"/></g>
<g><path style="opacity:1" fill="#256fa2" d="M 98.5,90.5 C 100.265,91.4614 102.265,91.7947 104.5,91.5C 99.0154,92.6517 93.3487,92.8184 87.5,92C 91.0257,90.6632 94.6924,90.1632 98.5,90.5 Z"/></g>
<g><path style="opacity:1" fill="#196291" d="M 309.5,97.5 C 309.5,97.8333 309.5,98.1667 309.5,98.5C 307.03,99.6932 304.364,100.193 301.5,100C 304.022,98.6591 306.689,97.8257 309.5,97.5 Z"/></g>
<g><path style="opacity:0.896" fill="#56a3e5" d="M 477.5,140.5 C 476.127,140.343 474.793,140.51 473.5,141C 473.833,141.333 474.167,141.667 474.5,142C 482.73,142.879 490.73,142.379 498.5,140.5C 502.768,139.343 507.101,138.01 511.5,136.5C 512.416,136.543 513.083,136.876 513.5,137.5C 497.708,141.93 483.041,148.763 469.5,158C 467.675,159.466 467.175,161.299 468,163.5C 471.113,164.71 473.613,166.71 475.5,169.5C 474.135,170.941 472.635,172.274 471,173.5C 470.333,175.167 470.333,176.833 471,178.5C 479.454,197.071 487.62,215.738 495.5,234.5C 492.531,236.006 489.698,235.673 487,233.5C 476.317,210.136 465.65,186.803 455,163.5C 454.333,160.833 454.333,158.167 455,155.5C 460.079,147.086 466.579,139.919 474.5,134C 486.207,134.787 497.874,134.454 509.5,133C 499.399,137.866 488.732,140.366 477.5,140.5 Z"/></g>
<g><path style="opacity:1" fill="#2f7ab0" d="M 477.5,140.5 C 484.336,141.448 491.336,141.448 498.5,140.5C 490.73,142.379 482.73,142.879 474.5,142C 474.167,141.667 473.833,141.333 473.5,141C 474.793,140.51 476.127,140.343 477.5,140.5 Z"/></g>
<g><path style="opacity:0.75" fill="#57a4e6" d="M 141.5,149.5 C 148.153,151.823 154.153,155.156 159.5,159.5C 118.931,164.236 78.2639,167.236 37.5,168.5C 72.1017,161.913 106.768,155.58 141.5,149.5 Z"/></g>
<g><path style="opacity:0.648" fill="#57a4e6" d="M 165.5,163.5 C 169.612,164.722 173.279,166.722 176.5,169.5C 154.183,171.498 131.85,173.498 109.5,175.5C 107.5,175.167 105.5,174.833 103.5,174.5C 124.011,169.97 144.678,166.304 165.5,163.5 Z"/></g>
<g><path style="opacity:0.642" fill="#57a4e6" d="M 69.5,228.5 C 67.5281,232.105 64.8615,235.105 61.5,237.5C 40.8543,239.387 20.1876,241.054 -0.5,242.5C -0.5,241.833 -0.5,241.167 -0.5,240.5C 22.7976,236.284 46.131,232.284 69.5,228.5 Z"/></g>
<g><path style="opacity:0.786" fill="#1d5f8e" d="M 369.5,268.5 C 370.634,270.966 370.801,273.633 370,276.5C 369.487,275.473 368.987,274.473 368.5,273.5C 369.451,272.081 369.784,270.415 369.5,268.5 Z"/></g>
<g><path style="opacity:0.747" fill="#57a4e6" d="M 425.5,319.5 C 426.496,319.414 427.329,319.748 428,320.5C 430.091,323.74 431.924,327.074 433.5,330.5C 375.999,337.067 318.499,343.734 261,350.5C 259.5,350.167 258,349.833 256.5,349.5C 312.663,338.604 368.996,328.604 425.5,319.5 Z"/></g>
<g><path style="opacity:0.702" fill="#57a4e6" d="M 435.5,333.5 C 439.833,335.833 443.167,339.167 445.5,343.5C 409.425,345.951 373.425,349.284 337.5,353.5C 335.833,353.167 334.167,352.833 332.5,352.5C 366.797,346.041 401.13,339.708 435.5,333.5 Z"/></g>
<g><path style="opacity:0.519" fill="#57a4e6" d="M 447.5,345.5 C 450.704,346.383 453.371,348.05 455.5,350.5C 437.798,352.375 420.132,354.208 402.5,356C 401.259,354.513 401.759,353.68 404,353.5C 418.577,351.151 433.077,348.484 447.5,345.5 Z"/></g>
</svg>
